<svg width="15" height="15" viewBox="0 0 15 15" fill="none" xmlns="http://www.w3.org/2000/svg">
<g clip-path="url(#clip0)">
<path d="M13.025 2.88125C12.7058 2.56187 12.3268 2.30853 11.9096 2.13567C11.4924 1.96282 11.0453 1.87386 10.5938 1.87386C10.1422 1.87386 9.69508 1.96282 9.27792 2.13567C8.86075 2.30853 8.48174 2.56187 8.16251 2.88125L7.50001 3.54375L6.83751 2.88125C6.19271 2.23644 5.31816 1.87419 4.40626 1.87419C3.49437 1.87419 2.61982 2.23644 1.97501 2.88125C1.33021 3.52605 0.967957 4.4006 0.967957 5.3125C0.967957 6.22439 1.33021 7.09894 1.97501 7.74375L2.63751 8.40625L7.50001 13.2687L12.3625 8.40625L13.025 7.74375C13.3444 7.42452 13.5977 7.0455 13.7706 6.62834C13.9434 6.21118 14.0324 5.76405 14.0324 5.3125C14.0324 4.86094 13.9434 4.41381 13.7706 3.99665C13.5977 3.57949 13.3444 3.20047 13.025 2.88125V2.88125Z" stroke-width="1" stroke-linecap="round" stroke-linejoin="round"/>
</g>
<defs>
<clipPath id="clip0">
<rect width="15" height="15" fill="white"/>
</clipPath>
</defs>
</svg>
