<svg width="30" height="30" viewBox="0 0 30 30" fill="none" xmlns="http://www.w3.org/2000/svg">
<path d="M15 0C6.7285 0 0 6.7285 0 15C0 23.2715 6.7285 30 15 30C23.2715 30 30 23.2715 30 15C30 6.7285 23.2715 0 15 0ZM15 28.75C7.4182 28.75 1.24998 22.5818 1.24998 15C1.24998 7.4182 7.4182 1.24998 15 1.24998C22.5818 1.24998 28.75 7.4182 28.75 15C28.75 22.5818 22.5818 28.75 15 28.75Z" fill="white"/>
<path d="M12.9419 7.6831C12.6977 7.43894 12.3022 7.43894 12.0581 7.6831C11.8139 7.92727 11.8139 8.32277 12.0581 8.56687L18.4912 15L12.0581 21.4331C11.8139 21.6773 11.8139 22.0728 12.0581 22.3169C12.1802 22.4389 12.3401 22.5 12.5 22.5C12.6599 22.5 12.8198 22.4389 12.9419 22.3169L19.8169 15.4419C20.0611 15.1978 20.0611 14.8022 19.8169 14.5581L12.9419 7.6831Z" fill="white"/>
</svg>
