<svg width="30" height="30" viewBox="0 0 30 30" fill="none" xmlns="http://www.w3.org/2000/svg">
<path d="M15 0C6.7285 0 0 6.7285 0 15C0 23.2715 6.7285 30 15 30C23.2715 30 30 23.2715 30 15C30 6.7285 23.2715 0 15 0ZM15 28.75C7.4182 28.75 1.24998 22.5818 1.24998 15C1.24998 7.4182 7.4182 1.24998 15 1.24998C22.5818 1.24998 28.75 7.4182 28.75 15C28.75 22.5818 22.5818 28.75 15 28.75Z" fill="white"/>
<path d="M17.9419 7.6831C17.6977 7.43894 17.3022 7.43894 17.0581 7.6831L10.1831 14.5581C9.93894 14.8022 9.93894 15.1978 10.1831 15.4419L17.0581 22.3168C17.1801 22.4389 17.3401 22.4999 17.5 22.4999C17.6599 22.4999 17.8198 22.4389 17.9419 22.3168C18.1861 22.0727 18.1861 21.6772 17.9419 21.4331L11.5088 15L17.9419 8.56687C18.186 8.32277 18.186 7.92727 17.9419 7.6831Z" fill="white"/>
</svg>
